<svg width="259.636279296875px" height="129.22519531249998px" xmlns="http://www.w3.org/2000/svg" viewBox="120.1818603515625 10.387402343750011 259.636279296875 129.22519531249998" style="background: rgb(253, 253, 253);" preserveAspectRatio="xMidYMid"><defs><linearGradient id="editing-rainbow-gradient" x1="0" x2="1" y1="0.5" y2="0.5" gradientUnits="objectBoundingBox"><stop offset="0.00" stop-color="#85a2b6"></stop><stop offset="0.17" stop-color="#bbcedd"></stop><stop offset="0.34" stop-color="#dce4eb"></stop><stop offset="0.51" stop-color="#a00d1e"></stop><stop offset="0.68" stop-color="#be5960"></stop><stop offset="0.85" stop-color="#d69293"></stop><stop offset="1.00" stop-color="#fdfdfd"></stop></linearGradient><filter id="editing-rainbow" x="-100%" y="-100%" width="300%" height="300%"><feMorphology operator="dilate" radius="1,2" in="SourceGraphic" result="dilate"></feMorphology><feColorMatrix in="dilate" result="color" type="matrix" values="0.7 0 0 0 0  0 0.7 0 0 0  0 0 0.7 0 0  0 0 0 1 0"></feColorMatrix><feOffset dy="2" result="offset"></feOffset><feGaussianBlur stdDeviation="3"></feGaussianBlur><feOffset dy="3"></feOffset><feColorMatrix result="blur" type="matrix" values="0.7 0 0 0 0  0 0.7 0 0 0  0 0 0.7 0 0  0 0 0 1 0"></feColorMatrix><feMerge><feMergeNode in="blur"></feMergeNode><feMergeNode in="offset"></feMergeNode><feMergeNode in="SourceGraphic"></feMergeNode></feMerge></filter></defs><g filter="url(#editing-rainbow)"><g transform="translate(165.78406131267548, 98.86999893188477)"><path d="M50.62-27.39L50.62-27.39L50.62-27.39Q48.26-26.43 46.56-26.43L46.56-26.43L46.56-26.43Q44.86-26.43 44.86-27.14L44.86-27.14L44.86-27.14Q44.86-27.58 46.75-27.65L46.75-27.65L46.75-27.65Q48.64-27.71 49.47-28.10L49.47-28.10L49.47-28.10Q51.90-29.38 51.90-31.87L51.90-31.87L51.90-31.87Q51.90-33.15 51.20-34.56L51.20-34.56L51.20-34.56Q49.15-38.21 41.28-38.21L41.28-38.21L41.28-38.21Q36.74-38.21 32.19-36.83L32.19-36.83L32.19-36.83Q27.65-35.46 24.58-32.61L24.58-32.61L24.58-32.61Q21.50-29.76 21.50-27.33L21.50-27.33L21.50-27.33Q21.50-23.62 28.86-21.89L28.86-21.89L36.42-20.48L36.42-20.48Q40.96-19.65 43.20-18.18L43.20-18.18L43.20-18.18Q46.14-16.38 46.14-13.06L46.14-13.06L46.14-13.06Q46.14-11.71 45.70-10.18L45.70-10.18L45.70-10.18Q43.65-3.26 35.14 0.38L35.14 0.38L35.14 0.38Q28.03 3.52 18.37 3.52L18.37 3.52L18.37 3.52Q15.62 3.52 13.57 3.26L13.57 3.26L13.57 3.26Q15.62 4.42 18.94 5.25L18.94 5.25L18.94 5.25Q19.20 5.31 19.20 5.50L19.20 5.50L19.20 5.50Q19.20 6.08 17.86 6.08L17.86 6.08L17.86 6.08Q15.23 6.08 11.33 2.94L11.33 2.94L11.33 2.94Q6.02 2.11 3.39 0L3.39 0L3.39 0Q1.73-1.34 0.32-3.97L0.32-3.97L0.32-3.97Q-1.09-6.59-1.09-8.70L-1.09-8.70L-1.09-8.70Q-1.09-10.82-0.26-12.22L-0.26-12.22L-0.26-12.22Q1.66-15.62 4.61-15.62L4.61-15.62L4.61-15.62Q6.85-15.62 7.23-11.84L7.23-11.84L7.23-11.84Q8.13-4.54 8.45-3.52L8.45-3.52L8.45-3.52Q9.41-0.38 11.71 1.79L11.71 1.79L11.71 1.79Q14.40 2.37 17.54 2.37L17.54 2.37L17.54 2.37Q24.45 2.37 31.10-0.38L31.10-0.38L31.10-0.38Q37.76-3.14 40.70-8.19L40.70-8.19L40.70-8.19Q41.92-10.18 41.92-11.71L41.92-11.71L41.92-11.71Q41.92-14.72 36.61-16.38L36.61-16.38L25.34-18.94L25.34-18.94Q21.89-19.78 19.81-21.70L19.81-21.70L19.81-21.70Q17.73-23.62 17.73-26.11L17.73-26.11L17.73-26.11Q17.73-29.95 22.53-33.79L22.53-33.79L22.53-33.79Q26.18-36.74 31.46-38.37L31.46-38.37L31.46-38.37Q36.74-40 41.82-40L41.82-40L41.82-40Q46.91-40 50.24-38.53L50.24-38.53L50.24-38.53Q54.53-36.54 54.53-32.74L54.53-32.74L54.53-32.74Q54.53-28.93 50.62-27.39ZM9.41 1.15L9.41 1.15L9.41 1.15Q5.70-2.94 4.67-10.05L4.67-10.05L4.67-10.05Q4.10-14.08 3.58-14.08L3.58-14.08L3.58-14.08Q3.07-14.08 2.62-13.79L2.62-13.79L2.62-13.79Q2.18-13.50 1.73-12.54L1.73-12.54L1.73-12.54Q1.28-11.58 1.28-10.05L1.28-10.05L1.28-10.05Q1.28-5.12 4.74-1.60L4.74-1.60L4.74-1.60Q6.46 0.19 9.41 1.15ZM74.94-2.62L74.94-2.62L74.94-2.62Q73.41-0.26 73.41 0.45L73.41 0.45L73.41 0.45Q73.41 1.15 73.98 1.47L73.98 1.47L73.98 1.47Q73.98 1.54 72.83 2.43L72.83 2.43L72.83 2.43Q71.81 2.94 70.53 2.94L70.53 2.94L70.53 2.94Q69.25 2.94 68.67 2.66L68.67 2.66L68.67 2.66Q68.10 2.37 68.29 1.73L68.29 1.73L68.29 1.73Q69.18-1.15 75.01-9.82L75.01-9.82L75.01-9.82Q80.83-18.50 82.82-22.08L82.82-22.08L82.82-22.08Q87.10-29.82 87.10-34.43L87.10-34.43L87.10-34.43Q87.10-36.35 86.46-37.70L86.46-37.70L86.46-37.70Q85.18-40.32 80.38-40.32L80.38-40.32L80.38-40.32Q72.90-40.32 64.90-33.86L64.90-33.86L64.90-33.86Q58.50-28.67 55.10-22.88L55.10-22.88L55.10-22.88Q51.71-17.09 51.71-12.54L51.71-12.54L51.71-12.54Q51.71-6.02 57.47-5.89L57.47-5.89L57.47-5.89Q57.73-5.89 57.98-5.89L57.98-5.89L57.98-5.89Q65.34-5.89 69.38-11.20L69.38-11.20L69.38-11.20Q70.91-13.31 70.91-14.78L70.91-14.78L70.91-14.78Q70.91-16.26 70.27-16.64L70.27-16.64L70.27-16.64Q70.21-16.70 70.21-16.90L70.21-16.90L70.21-16.90Q70.21-17.09 70.59-17.09L70.59-17.09L70.59-17.09Q72.26-17.09 72.26-14.91L72.26-14.91L72.26-14.91Q72.26-13.57 70.94-11.26L70.94-11.26L70.94-11.26Q69.63-8.96 66.30-6.91L66.30-6.91L66.30-6.91Q62.98-4.86 58.56-4.86L58.56-4.86L58.56-4.86Q54.14-4.86 51.52-7.62L51.52-7.62L51.52-7.62Q48.90-10.37 48.90-14.85L48.90-14.85L48.90-14.85Q48.90-24.96 62.08-35.52L62.08-35.52L62.08-35.52Q65.47-38.21 71.01-39.94L71.01-39.94L71.01-39.94Q76.54-41.66 81.60-41.66L81.60-41.66L81.60-41.66Q86.66-41.66 88.48-39.90L88.48-39.90L88.48-39.90Q90.30-38.14 90.30-35.20L90.30-35.20L90.30-35.20Q90.30-30.72 86.66-23.10L86.66-23.10L86.66-23.10Q85.50-20.74 81.47-14.46L81.47-14.46L86.40-20.74L86.40-20.74Q89.98-25.41 98.82-34.05L98.82-34.05L98.82-34.05Q100.74-35.90 103.07-37.15L103.07-37.15L103.07-37.15Q105.41-38.40 107.07-38.40L107.07-38.40L107.07-38.40Q109.38-38.40 109.38-35.97L109.38-35.97L109.38-35.97Q109.38-33.86 107.36-29.60L107.36-29.60L107.36-29.60Q105.34-25.34 103.30-21.54L103.30-21.54L103.30-21.54Q101.25-17.73 100.80-16.54L100.80-16.54L100.80-16.54Q100.35-15.36 100.16-14.66L100.16-14.66L100.16-14.66Q99.97-13.95 99.90-13.89L99.90-13.89L99.90-13.89Q100.10-14.21 104.13-18.78L104.13-18.78L104.13-18.78Q108.16-23.36 116.03-30.21L116.03-30.21L126.27-38.66L126.27-38.66Q127.49-39.68 128.45-39.68L128.45-39.68L128.45-39.68Q129.41-39.68 130.02-38.08L130.02-38.08L130.02-38.08Q130.62-36.48 130.62-35.49L130.62-35.49L130.62-35.49Q130.62-34.50 127.55-31.36L127.55-31.36L127.55-31.36Q119.55-23.17 113.98-13.44L113.98-13.44L113.98-13.44Q108.42-3.71 108.42 0.45L108.42 0.45L108.42 0.45Q108.42 1.54 108.80 1.95L108.80 1.95L108.80 1.95Q109.18 2.37 110.02 2.21L110.02 2.21L110.02 2.21Q110.85 2.05 113.50 0.90L113.50 0.90L113.50 0.90Q116.16-0.26 116.99-0.45L116.99-0.45L116.99-0.45Q117.31-0.32 117.31-0.13L117.31-0.13L117.31-0.13Q117.31 0.83 113.95 2.56L113.95 2.56L113.95 2.56Q110.59 4.29 108.90 4.29L108.90 4.29L108.90 4.29Q107.20 4.29 106.82 3.71L106.82 3.71L106.82 3.71Q105.66 2.05 105.66-0.32L105.66-0.32L105.66-0.32Q105.66-5.82 111.55-16.13L111.55-16.13L111.55-16.13Q115.33-22.59 123.20-33.54L123.20-33.54L123.20-33.54Q117.06-28.54 106.56-18.24L106.56-18.24L106.56-18.24Q96.06-7.94 92.80-2.11L92.80-2.11L92.80-2.11Q91.14 0.90 88.77 0.90L88.77 0.90L88.77 0.90Q87.68 0.90 87.68 0.13L87.68 0.13L87.68 0.13Q87.68-0.13 88.99-2.18L88.99-2.18L88.99-2.18Q90.30-4.22 94.78-11.78L94.78-11.78L94.78-11.78Q105.79-30.91 105.79-34.82L105.79-34.82L105.79-34.82Q105.79-35.84 105.09-35.84L105.09-35.84L105.09-35.84Q104.06-35.84 102.08-34.11L102.08-34.11L102.08-34.11Q94.98-28.16 86.98-18.56L86.98-18.56L86.98-18.56Q78.98-8.96 74.94-2.62ZM171.20-27.39L171.20-27.39L171.20-27.39Q168.83-26.43 167.14-26.43L167.14-26.43L167.14-26.43Q165.44-26.43 165.44-27.14L165.44-27.14L165.44-27.14Q165.44-27.58 167.33-27.65L167.33-27.65L167.33-27.65Q169.22-27.71 170.05-28.10L170.05-28.10L170.05-28.10Q172.48-29.38 172.48-31.87L172.48-31.87L172.48-31.87Q172.48-33.15 171.78-34.56L171.78-34.56L171.78-34.56Q169.73-38.21 161.86-38.21L161.86-38.21L161.86-38.21Q157.31-38.21 152.77-36.83L152.77-36.83L152.77-36.83Q148.22-35.46 145.15-32.61L145.15-32.61L145.15-32.61Q142.08-29.76 142.08-27.33L142.08-27.33L142.08-27.33Q142.08-23.62 149.44-21.89L149.44-21.89L156.99-20.48L156.99-20.48Q161.54-19.65 163.78-18.18L163.78-18.18L163.78-18.18Q166.72-16.38 166.72-13.06L166.72-13.06L166.72-13.06Q166.72-11.71 166.27-10.18L166.27-10.18L166.27-10.18Q164.22-3.26 155.71 0.38L155.71 0.38L155.71 0.38Q148.61 3.52 138.94 3.52L138.94 3.52L138.94 3.52Q136.19 3.52 134.14 3.26L134.14 3.26L134.14 3.26Q136.19 4.42 139.52 5.25L139.52 5.25L139.52 5.25Q139.78 5.31 139.78 5.50L139.78 5.50L139.78 5.50Q139.78 6.08 138.43 6.08L138.43 6.08L138.43 6.08Q135.81 6.08 131.90 2.94L131.90 2.94L131.90 2.94Q126.59 2.11 123.97 0L123.97 0L123.97 0Q122.30-1.34 120.90-3.97L120.90-3.97L120.90-3.97Q119.49-6.59 119.49-8.70L119.49-8.70L119.49-8.70Q119.49-10.82 120.32-12.22L120.32-12.22L120.32-12.22Q122.24-15.62 125.18-15.62L125.18-15.62L125.18-15.62Q127.42-15.62 127.81-11.84L127.81-11.84L127.81-11.84Q128.70-4.54 129.02-3.52L129.02-3.52L129.02-3.52Q129.98-0.38 132.29 1.79L132.29 1.79L132.29 1.79Q134.98 2.37 138.11 2.37L138.11 2.37L138.11 2.37Q145.02 2.37 151.68-0.38L151.68-0.38L151.68-0.38Q158.34-3.14 161.28-8.19L161.28-8.19L161.28-8.19Q162.50-10.18 162.50-11.71L162.50-11.71L162.50-11.71Q162.50-14.72 157.18-16.38L157.18-16.38L145.92-18.94L145.92-18.94Q142.46-19.78 140.38-21.70L140.38-21.70L140.38-21.70Q138.30-23.62 138.30-26.11L138.30-26.11L138.30-26.11Q138.30-29.95 143.10-33.79L143.10-33.79L143.10-33.79Q146.75-36.74 152.03-38.37L152.03-38.37L152.03-38.37Q157.31-40 162.40-40L162.40-40L162.40-40Q167.49-40 170.82-38.53L170.82-38.53L170.82-38.53Q175.10-36.54 175.10-32.74L175.10-32.74L175.10-32.74Q175.10-28.93 171.20-27.39ZM129.98 1.15L129.98 1.15L129.98 1.15Q126.27-2.94 125.25-10.05L125.25-10.05L125.25-10.05Q124.67-14.08 124.16-14.08L124.16-14.08L124.16-14.08Q123.65-14.08 123.20-13.79L123.20-13.79L123.20-13.79Q122.75-13.50 122.30-12.54L122.30-12.54L122.30-12.54Q121.86-11.58 121.86-10.05L121.86-10.05L121.86-10.05Q121.86-5.12 125.31-1.60L125.31-1.60L125.31-1.60Q127.04 0.19 129.98 1.15Z" fill="url(#editing-rainbow-gradient)"></path></g></g><style>text {
  font-size: 64px;
  font-family: Arial Black;
  dominant-baseline: central;
  text-anchor: middle;
}</style></svg>